:FULLY-SPECIFIED
:FORCE-ALL-JOINTS-BE-3DOF
:DEGREES
374
root 6.13474 16.1886 -15.8812 6.03831 -3.25838 -2.72975
lfemur -13.351 8.18378 -3.78525
ltibia 51.7621 -0 0
lfoot 1.21763 17.6183 1.14283
ltoes 6.16114 -0 0
rfemur -39.5046 -11.582 16.4242
rtibia 49.7254 -0 0
rfoot -3.60632 -4.14344 0.226395
rtoes -6.5037 0 0
lowerback 1.74448 0.172802 0.83996
upperback 1.90661 0.213388 0.378007
thorax 1.06672 0.125028 -0.20259
lowerneck -6.95976 -2.87204 2.65674
upperneck 2.02852 -4.18878 2.60924
head 2.08144 -1.9752 0.21557
lclavicle -2.43842e-14 1.45776e-14 -1.45609e-32
lhumerus -45.9508 -25.7357 103.253
lradius 53.311 -0 0
lwrist 16.3987 0 0
lhand -6.77996 6.17008 0.414525
lfingers 7.12502 -0 0
lthumb 19.062 34.9865 0.335087
rclavicle -2.43842e-14 1.45776e-14 -1.45609e-32
rhumerus -38.4006 9.47043 -88.6904
rradius 77.1817 -0 0
rwrist 8.05335 0 0
rhand -41.8867 -31.7148 0.430628
rfingers 7.12502 -0 0
rthumb -14.7773 -61.0291 0.387829
375
root 6.07843 16.1824 -15.7616 5.96462 -3.76743 -2.81518
lfemur -13.6485 8.18641 -3.7767
ltibia 51.8225 -0 0
lfoot 0.758847 17.3888 1.16496
ltoes 5.89229 -0 0
rfemur -39.4026 -11.2898 16.1624
rtibia 49.6753 -0 0
rfoot -3.42463 -4.02911 0.230748
rtoes -6.66091 0 0
lowerback 1.84022 0.220515 0.882052
upperback 1.91007 0.278124 0.354727
thorax 1.0193 0.158021 -0.25319
lowerneck -6.95693 -2.73705 2.78688
upperneck 2.07816 -4.01758 2.50493
head 2.09717 -1.88996 0.166362
lclavicle -2.43975e-14 1.44768e-14 -1.48405e-32
lhumerus -45.901 -25.6781 103.107
lradius 53.2216 -0 0
lwrist 16.3205 0 0
lhand -7.05901 6.03367 0.422509
lfingers 7.12502 -0 0
lthumb 18.7935 34.872 0.341539
rclavicle -2.43975e-14 1.44768e-14 -1.48405e-32
rhumerus -38.5765 9.35036 -88.6931
rradius 77.0281 -0 0
rwrist 8.13762 0 0
rhand -41.6763 -31.5269 0.438917
rfingers 7.12502 -0 0
rthumb -14.5745 -60.8535 0.395293
376
root 6.02212 16.1762 -15.642 5.89164 -4.27659 -2.90001
lfemur -13.9461 8.18909 -3.76816
ltibia 51.883 -0 0
lfoot 0.299979 17.1592 1.18526
ltoes 5.62344 -0 0
rfemur -39.3022 -10.9972 15.9013
rtibia 49.6252 -0 0
rfoot -3.24295 -3.91477 0.234739
rtoes -6.81813 0 0
lowerback 1.936 0.268158 0.924225
upperback 1.91351 0.342861 0.331451
thorax 0.971851 0.190972 -0.303818
lowerneck -6.9538 -2.60207 2.917
upperneck 2.12748 -3.84629 2.40078
head 2.11284 -1.80472 0.11718
lclavicle -2.44107e-14 1.43761e-14 -1.50968e-32
lhumerus -45.8513 -25.6203 102.961
lradius 53.1323 -0 0
lwrist 16.2423 0 0
lhand -7.33809 5.89721 0.429828
lfingers 7.12502 -0 0
lthumb 18.5249 34.7574 0.347453
rclavicle -2.44107e-14 1.43761e-14 -1.50968e-32
rhumerus -38.7524 9.23027 -88.6955
rradius 76.8745 -0 0
rwrist 8.2219 0 0
rhand -41.4659 -31.339 0.446516
rfingers 7.12502 -0 0
rthumb -14.3717 -60.6779 0.402135
377
root 5.96581 16.17 -15.5225 5.81937 -4.78586 -2.98424
lfemur -14.2437 8.19181 -3.75963
ltibia 51.9435 -0 0
lfoot -0.158969 16.9294 1.20371
ltoes 5.35459 -0 0
rfemur -39.2032 -10.7041 15.6411
rtibia 49.5751 -0 0
rfoot -3.06125 -3.80041 0.238367
rtoes -6.97534 0 0
lowerback 2.03181 0.315729 0.966477
upperback 1.91691 0.4076 0.308178
thorax 0.924375 0.223881 -0.354473
lowerneck -6.95035 -2.46709 3.04712
upperneck 2.17647 -3.67491 2.29681
head 2.12842 -1.71946 0.068023
lclavicle -2.4424e-14 1.42754e-14 -1.53297e-32
lhumerus -45.8018 -25.5625 102.815
lradius 53.043 -0 0
lwrist 16.1641 0 0
lhand -7.61717 5.76073 0.436483
lfingers 7.12502 -0 0
lthumb 18.2563 34.6427 0.35283
rclavicle -2.4424e-14 1.42754e-14 -1.53297e-32
rhumerus -38.9283 9.11018 -88.6975
rradius 76.7209 -0 0
rwrist 8.30617 0 0
rhand -41.2555 -31.151 0.453426
rfingers 7.12502 -0 0
rthumb -14.169 -60.5022 0.408356
378
root 5.90949 16.1638 -15.4029 5.7478 -5.29523 -3.0679
lfemur -14.5413 8.19458 -3.75112
ltibia 52.004 -0 0
lfoot -0.617991 16.6994 1.22032
ltoes 5.08573 -0 0
rfemur -39.1057 -10.4106 15.3815
rtibia 49.525 -0 0
rfoot -2.87954 -3.68605 0.241632
rtoes -7.13256 0 0
lowerback 2.12765 0.363231 1.00881
upperback 1.92029 0.472341 0.284909
thorax 0.87687 0.256749 -0.405155
lowerneck -6.94661 -2.33213 3.17724
upperneck 2.22514 -3.50344 2.193
head 2.14394 -1.63419 0.0188917
lclavicle -2.44372e-14 1.41747e-14 -1.55394e-32
lhumerus -45.7525 -25.5045 102.669
lradius 52.9536 -0 0
lwrist 16.0859 0 0
lhand -7.89628 5.62421 0.442472
lfingers 7.12502 -0 0
lthumb 17.9878 34.5281 0.35767
rclavicle -2.44372e-14 1.41747e-14 -1.55394e-32
rhumerus -39.1041 8.99009 -88.6991
rradius 76.5673 -0 0
rwrist 8.39045 0 0
rhand -41.045 -30.963 0.459644
rfingers 7.12502 -0 0
rthumb -13.9661 -60.3266 0.413955
379
root 5.85318 16.1576 -15.2833 5.67691 -5.80471 -3.15099
lfemur -14.8389 8.19739 -3.74262
ltibia 52.0644 -0 0
lfoot -1.07708 16.4694 1.23509
ltoes 4.81688 -0 0
rfemur -39.0096 -10.1167 15.1228
rtibia 49.4749 -0 0
rfoot -2.69783 -3.57167 0.244535
rtoes -7.28977 0 0
lowerback 2.22353 0.410661 1.05122
upperback 1.92365 0.537082 0.261643
thorax 0.829335 0.289574 -0.455865
lowerneck -6.94255 -2.19717 3.30735
upperneck 2.27349 -3.33189 2.08936
head 2.15938 -1.5489 -0.0302145
lclavicle -2.44505e-14 1.4074e-14 -1.57258e-32
lhumerus -45.7034 -25.4464 102.523
lradius 52.8643 -0 0
lwrist 16.0078 0 0
lhand -8.1754 5.48767 0.447797
lfingers 7.12502 -0 0
lthumb 17.7192 34.4134 0.361973
rclavicle -2.44505e-14 1.4074e-14 -1.57258e-32
rhumerus -39.2798 8.86999 -88.7003
rradius 76.4137 -0 0
rwrist 8.47472 0 0
rhand -40.8346 -30.775 0.465172
rfingers 7.12502 -0 0
rthumb -13.7633 -60.1509 0.418932
380
root 5.79687 16.1514 -15.1637 5.60669 -6.31428 -3.23352
lfemur -15.1365 8.20024 -3.73414
ltibia 52.1249 -0 0
lfoot -1.53622 16.2392 1.24802
ltoes 4.54803 -0 0
rfemur -38.9149 -9.82233 14.8647
rtibia 49.4247 -0 0
rfoot -2.51612 -3.45729 0.247075
rtoes -7.44698 0 0
lowerback 2.31945 0.45802 1.09371
upperback 1.92698 0.601825 0.238381
thorax 0.781772 0.322357 -0.506602
lowerneck -6.93819 -2.06222 3.43747
upperneck 2.32153 -3.16025 1.98588
head 2.17475 -1.46361 -0.0792958
lclavicle -2.44638e-14 1.39732e-14 -1.58889e-32
lhumerus -45.6545 -25.3882 102.377
lradius 52.775 -0 0
lwrist 15.9296 0 0
lhand -8.45453 5.3511 0.452456
lfingers 7.12502 -0 0
lthumb 17.4506 34.2987 0.365738
rclavicle -2.44638e-14 1.39732e-14 -1.58889e-32
rhumerus -39.4554 8.74988 -88.7012
rradius 76.2601 -0 0
rwrist 8.559 0 0
rhand -40.6241 -30.5869 0.47001
rfingers 7.12502 -0 0
rthumb -13.5605 -59.9752 0.423288
381
root 5.74056 16.1452 -15.0441 5.53714 -6.82396 -3.31551
lfemur -15.4341 8.20314 -3.72567
ltibia 52.1854 -0 0
lfoot -1.99542 16.0089 1.2591
ltoes 4.27918 -0 0
rfemur -38.8217 -9.52756 14.6074
rtibia 49.3746 -0 0
rfoot -2.3344 -3.3429 0.249252
rtoes -7.6042 0 0
lowerback 2.4154 0.505308 1.13628
upperback 1.93028 0.66657 0.215123
thorax 0.734179 0.355098 -0.557367
lowerneck -6.93352 -1.92728 3.56758
upperneck 2.36924 -2.98852 1.88256
head 2.19004 -1.37829 -0.128352
lclavicle -2.4477e-14 1.38725e-14 -1.60287e-32
lhumerus -45.6058 -25.3299 102.232
lradius 52.6857 -0 0
lwrist 15.8514 0 0
lhand -8.73367 5.21451 0.45645
lfingers 7.12502 -0 0
lthumb 17.182 34.184 0.368965
rclavicle -2.4477e-14 1.38725e-14 -1.60287e-32
rhumerus -39.631 8.62978 -88.7017
rradius 76.1065 -0 0
rwrist 8.64327 0 0
rhand -40.4136 -30.3989 0.474156
rfingers 7.12502 -0 0
rthumb -13.3576 -59.7995 0.427021
382
root 5.68425 16.139 -14.9245 5.46826 -7.33373 -3.39696
lfemur -15.7317 8.20608 -3.71721
ltibia 52.2459 -0 0
lfoot -2.45466 15.7786 1.26833
ltoes 4.01033 -0 0
rfemur -38.7299 -9.23237 14.3508
rtibia 49.3245 -0 0
rfoot -2.15267 -3.2285 0.251066
rtoes -7.76141 0 0
lowerback 2.51139 0.552525 1.17893
upperback 1.93355 0.731316 0.191868
thorax 0.686557 0.387797 -0.608159
lowerneck -6.92855 -1.79235 3.69769
upperneck 2.41664 -2.8167 1.7794
head 2.20526 -1.29297 -0.177384
lclavicle -2.44903e-14 1.37718e-14 -1.61452e-32
lhumerus -45.5572 -25.2715 102.087
lradius 52.5963 -0 0
lwrist 15.7732 0 0
lhand -9.01282 5.0779 0.459779
lfingers 7.12502 -0 0
lthumb 16.9134 34.0693 0.371654
rclavicle -2.44903e-14 1.37718e-14 -1.61452e-32
rhumerus -39.8065 8.50967 -88.7018
rradius 75.9529 -0 0
rwrist 8.72755 0 0
rhand -40.2031 -30.2108 0.477612
rfingers 7.12502 -0 0
rthumb -13.1548 -59.6238 0.430132
383
root 5.62794 16.1328 -14.805 5.40002 -7.8436 -3.4779
lfemur -16.0293 8.20906 -3.70878
ltibia 52.3063 -0 0
lfoot -2.91393 15.5481 1.27572
ltoes 3.74148 -0 0
rfemur -38.6395 -8.93679 14.0949
rtibia 49.2744 -0 0
rfoot -1.97094 -3.1141 0.252518
rtoes -7.91863 0 0
lowerback 2.60741 0.59967 1.22166
upperback 1.9368 0.796063 0.168616
thorax 0.638906 0.420454 -0.658978
lowerneck -6.92327 -1.65744 3.8278
upperneck 2.46372 -2.6448 1.6764
head 2.22041 -1.20763 -0.226392
lclavicle -2.45035e-14 1.36711e-14 -1.62383e-32
lhumerus -45.5089 -25.213 101.941
lradius 52.507 -0 0
lwrist 15.695 0 0
lhand -9.29197 4.94128 0.462442
lfingers 7.12502 -0 0
lthumb 16.6448 33.9546 0.373806
rclavicle -2.45035e-14 1.36711e-14 -1.62383e-32
rhumerus -39.982 8.38956 -88.7015
rradius 75.7993 -0 0
rwrist 8.81182 0 0
rhand -39.9925 -30.0227 0.480376
rfingers 7.12502 -0 0
rthumb -12.9519 -59.4481 0.432621
384
root 5.57162 16.1266 -14.6854 5.33242 -8.35357 -3.55832
lfemur -16.3269 8.21208 -3.70036
ltibia 52.3668 -0 0
lfoot -3.37323 15.3177 1.28127
ltoes 3.47263 -0 0
rfemur -38.5505 -8.64081 13.8397
rtibia 49.2243 -0 0
rfoot -1.78921 -2.99969 0.253607
rtoes -8.07584 0 0
lowerback 2.70347 0.646744 1.26447
upperback 1.94002 0.860811 0.145368
thorax 0.591226 0.453068 -0.709825
lowerneck -6.91768 -1.52253 3.95792
upperneck 2.51049 -2.47282 1.57355
head 2.23548 -1.12228 -0.275376
lclavicle -2.45168e-14 1.35704e-14 -1.63082e-32
lhumerus -45.4607 -25.1544 101.796
lradius 52.4177 -0 0
lwrist 15.6169 0 0
lhand -9.57114 4.80465 0.464439
lfingers 7.12502 -0 0
lthumb 16.3762 33.8399 0.37542
rclavicle -2.45168e-14 1.35704e-14 -1.63082e-32
rhumerus -40.1575 8.26946 -88.7009
rradius 75.6457 -0 0
rwrist 8.8961 0 0
rhand -39.782 -29.8346 0.48245
rfingers 7.12502 -0 0
rthumb -12.749 -59.2724 0.434488
385
root 5.51531 16.1204 -14.5658 5.26546 -8.86362 -3.63824
lfemur -16.6245 8.21515 -3.69195
ltibia 52.4273 -0 0
lfoot -3.83255 15.0871 1.28496
ltoes 3.20378 -0 0
rfemur -38.4629 -8.34444 13.5851
rtibia 49.1742 -0 0
rfoot -1.60748 -2.88528 0.254332
rtoes -8.23305 0 0
lowerback 2.79957 0.693745 1.30736
upperback 1.94322 0.925561 0.122122
thorax 0.543517 0.48564 -0.760699
lowerneck -6.91179 -1.38764 4.08805
upperneck 2.55694 -2.30076 1.47085
head 2.25048 -1.03692 -0.324336
lclavicle -2.453e-14 1.34697e-14 -1.63548e-32
lhumerus -45.4127 -25.0956 101.651
lradius 52.3283 -0 0
lwrist 15.5387 0 0
lhand -9.8503 4.66801 0.465771
lfingers 7.12502 -0 0
lthumb 16.1076 33.7251 0.376496
rclavicle -2.453e-14 1.34697e-14 -1.63548e-32
rhumerus -40.3328 8.14935 -88.6999
rradius 75.4921 -0 0
rwrist 8.98037 0 0
rhand -39.5715 -29.6465 0.483832
rfingers 7.12502 -0 0
rthumb -12.5461 -59.0966 0.435733
386
root 5.459 16.1142 -14.4462 5.19912 -9.37377 -3.71767
lfemur -16.9221 8.21827 -3.68356
ltibia 52.4878 -0 0
lfoot -4.29188 14.8566 1.28681
ltoes 2.93493 -0 0
rfemur -38.3767 -8.04769 13.3312
rtibia 49.1241 -0 0
rfoot -1.42575 -2.77087 0.254695
rtoes -8.39027 0 0
lowerback 2.8957 0.740675 1.35033
upperback 1.94639 0.990312 0.0988804
thorax 0.495778 0.51817 -0.8116
lowerneck -6.90559 -1.25276 4.21818
upperneck 2.60308 -2.12861 1.36831
head 2.2654 -0.951543 -0.373272
lclavicle -2.45433e-14 1.33689e-14 -1.63781e-32
lhumerus -45.3649 -25.0368 101.506
lradius 52.239 -0 0
lwrist 15.4605 0 0
lhand -10.1295 4.53136 0.466436
lfingers 7.12502 -0 0
lthumb 15.8389 33.6104 0.377034
rclavicle -2.45433e-14 1.33689e-14 -1.63781e-32
rhumerus -40.5082 8.02926 -88.6985
rradius 75.3385 -0 0
rwrist 9.06465 0 0
rhand -39.3609 -29.4584 0.484523
rfingers 7.12502 -0 0
rthumb -12.3432 -58.9209 0.436355
